<?xml version="1.0" encoding="UTF-8" standalone="no"?>
<svg
   xmlns:dc="http://purl.org/dc/elements/1.1/"
   xmlns:cc="http://creativecommons.org/ns#"
   xmlns:rdf="http://www.w3.org/1999/02/22-rdf-syntax-ns#"
   xmlns:svg="http://www.w3.org/2000/svg"
   xmlns="http://www.w3.org/2000/svg"
   xmlns:sodipodi="http://sodipodi.sourceforge.net/DTD/sodipodi-0.dtd"
   xmlns:inkscape="http://www.inkscape.org/namespaces/inkscape"
   version="1.1"
   id="Camada_1"
   x="0px"
   y="0px"
   width="320"
   height="320"
   viewBox="0 0 320 320"
   enable-background="new 0 0 100 100"
   xml:space="preserve"
   inkscape:version="0.48.2 r9819"
   sodipodi:docname="splash.svg"><metadata
   id="metadata79"><rdf:RDF><cc:Work
       rdf:about=""><dc:format>image/svg+xml</dc:format><dc:type
         rdf:resource="http://purl.org/dc/dcmitype/StillImage" /></cc:Work></rdf:RDF></metadata><defs
   id="defs77" /><sodipodi:namedview
   pagecolor="#000000"
   bordercolor="#666666"
   borderopacity="1"
   objecttolerance="10"
   gridtolerance="10"
   guidetolerance="10"
   inkscape:pageopacity="0"
   inkscape:pageshadow="2"
   inkscape:window-width="1440"
   inkscape:window-height="807"
   id="namedview75"
   showgrid="false"
   inkscape:zoom="1.18"
   inkscape:cx="-98.544189"
   inkscape:cy="235.13796"
   inkscape:window-x="60"
   inkscape:window-y="35"
   inkscape:window-maximized="0"
   inkscape:current-layer="Camada_1" />



































<g
   id="g3018"
   transform="translate(22.68085,195.48702)"><path
     inkscape:connector-curvature="0"
     style="fill:#262626;fill-opacity:1"
     id="path3"
     d="m 136.76222,-81.118093 c 0,0 -52.136953,-3.659014 -52.047451,-0.694952 0.0895,2.964062 -47.551338,-19.263775 -52.297522,-27.782155 -1.442546,-2.59026 13.343541,-11.09812 23.333429,-16.00752 12.451163,-6.11764 29.953868,-10.86909 36.690129,-13.39355 6.741533,-2.52708 44.102925,-21.8593 40.085895,8.36044 -1.34513,7.93137 20.3457,8.5842 22.10676,1.29252 1.45307,-6.0071 -3.87751,-13.54362 -1.25566,-15.68111 5.7228,-4.66195 15.6416,0.41065 15.6416,0.41065 20.44046,5.2437 76.75499,35.7925 73.13283,51.773688 -1.35041,5.957075 -40.25963,10.258383 -43.77124,10.763802 -3.5116,0.505416 -19.54015,-4.627724 -32.95215,-0.05792 -13.41197,4.569819 -28.66662,1.016102 -28.66662,1.016102 z" /><path
     inkscape:connector-curvature="0"
     style="fill:#262626;fill-opacity:1"
     id="path5"
     d="m 198.37311,-70.45958 c 0,0 -66.2781,17.74225 -112.576433,-3.614262 -0.54227,-7.06268 -1.955858,-14.238543 0,-17.007813 64.324863,10.734847 96.358313,3.22204 113.097643,0 0.0394,10.339994 -0.52121,20.622075 -0.52121,20.622075 z" /><path
     inkscape:connector-curvature="0"
     style="fill:#262626;fill-opacity:1"
     id="path7"
     d="m 141.25043,-11.041468 c 0,0 -18.36875,5.0094217 -23.55456,9.710855 -1.63734,1.48203122 3.39313,7.7181424 3.39313,7.7181424 l 4.49612,-3.9512038 15.66531,-6.1992589 0,0 14.87295,6.1992589 4.49348,3.9512038 c 0,0 3.85117,-6.14924344 2.45074,-7.8576586 -3.83275,-4.6724764 -21.81717,-9.5713388 -21.81717,-9.5713388 z" /><path
     inkscape:connector-curvature="0"
     style="fill:#262626;fill-opacity:1"
     id="path9"
     d="m 133.06899,10.254497 c 2.96669,-2.0137712 14.17801,-2.2638473 16.61822,0 1.47941,3.306272 -4.63827,12.093163 -8.30781,12.111589 -3.67215,0.02106 -9.70821,-9.097511 -8.31041,-12.111589 z" /><path
     inkscape:connector-curvature="0"
     style="fill:#262626;fill-opacity:1"
     id="path11"
     d="m 99.01913,-10.441285 c 0,0 18.83732,31.709667 29.02464,36.542719 6.04395,2.866665 20.91428,3.208873 26.78711,0 9.32654,-5.098923 27.12669,-33.9629861 27.12669,-33.9629861 0,0 -15.57054,35.7135201 -25.94475,42.6445801 -5.96499,3.985425 -22.41473,3.474744 -28.68506,0 C 115.6584,28.320532 99.01913,-10.441285 99.01913,-10.441285 z" /><path
     inkscape:connector-curvature="0"
     style="fill:#262626;fill-opacity:1"
     id="path13"
     d="m 85.038551,-86.372331 14.994039,10.118878 c 0,0 -17.771201,101.34142 -16.194404,135.214905 0.04737,8.957994 -11.027047,7.462802 -13.962151,2.866663 -2.92984,-4.596138 15.162516,-148.200446 15.162516,-148.200446 z" /><path
     inkscape:connector-curvature="0"
     style="fill:#262626;fill-opacity:1"
     id="path15"
     d="m 193.6743,-83.632021 -0.0263,11.192889 c 0,0 19.79813,78.8266614 25.35507,102.670772 0.56597,6.862619 11.51142,5.101555 14.12274,1.418856 2.61132,-3.680072 -39.45149,-115.282517 -39.45149,-115.282517 z" /><path
     inkscape:connector-curvature="0"
     style="fill:#262626;fill-opacity:1"
     id="path17"
     d="m 86.723275,-76.990518 2.774532,18.718862 c 0,0 -21.26701,67.5047904 -24.267926,92.449236 -0.221119,6.778382 -11.213944,4.827788 -13.996372,1.131923 C 48.44845,31.613642 86.723275,-76.990518 86.723275,-76.990518 z" /><circle
     transform="matrix(2.6323814,0,0,2.6323814,5.7327962,-167.41809)"
     sodipodi:ry="3.421"
     sodipodi:rx="3.421"
     sodipodi:cy="76.408997"
     sodipodi:cx="68.196999"
     style="fill:#262626;fill-opacity:1"
     id="circle19"
     r="3.421"
     cy="76.408997"
     cx="68.196999"
     d="m 71.617999,76.408997 c 0,1.889366 -1.531634,3.421 -3.421,3.421 -1.889367,0 -3.421,-1.531634 -3.421,-3.421 0,-1.889367 1.531633,-3.421 3.421,-3.421 1.889366,0 3.421,1.531633 3.421,3.421 z" /><path
     inkscape:connector-curvature="0"
     style="fill:#262626;fill-opacity:1"
     id="path21"
     d="m 188.21737,-46.57072 c 0,1.28197 -1.03978,2.324392 -2.32439,2.324392 h -2.32439 c -1.28198,0 -2.32439,-1.042422 -2.32439,-2.324392 v -2.324394 c 0,-1.2846 1.04241,-2.324391 2.32439,-2.324391 h 2.32439 c 1.28461,0 2.32439,1.039791 2.32439,2.324391 v 2.324394 z" /><path
     inkscape:connector-curvature="0"
     style="fill:#262626;fill-opacity:1"
     id="path23"
     d="m 187.65142,-37.067823 c 0,0.77392 -0.62651,1.400427 -1.40044,1.400427 h -3.03514 c -0.77654,0 -1.40042,-0.626507 -1.40042,-1.400427 v -4.638257 c 0,-0.773919 0.62388,-1.400427 1.40042,-1.400427 h 3.03514 c 0.77393,0 1.40044,0.626508 1.40044,1.400427 v 4.638257 z" /><path
     inkscape:connector-curvature="0"
     style="fill:#262626;fill-opacity:1"
     id="path25"
     d="m 190.40488,-26.190823 c 0,2.324393 -1.88215,4.206546 -4.20391,4.206546 h -2.93773 c -2.32176,0 -4.20655,-1.882153 -4.20655,-4.206546 v -3.972264 c 0,-2.32176 1.88479,-4.203914 4.20655,-4.203914 h 2.93773 c 2.32176,0 4.20391,1.882154 4.20391,4.203914 v 3.972264 z" /><path
     inkscape:connector-curvature="0"
     style="fill:#262626;fill-opacity:1"
     id="path27"
     d="m 190.69181,-17.630318 c 0,1.545207 -1.25302,2.795588 -2.79822,2.795588 h -6.32297 c -1.5426,0 -2.7956,-1.250381 -2.7956,-2.795588 l 0,0 c 0,-1.542576 1.253,-2.795589 2.7956,-2.795589 h 6.32297 c 1.5452,0.0027 2.79822,1.253013 2.79822,2.795589 l 0,0 z" /><path
     inkscape:connector-curvature="0"
     style="fill:#262626;fill-opacity:1"
     id="path29"
     d="m 189.3493,21.584268 c 0,1.129292 -0.91607,2.042727 -2.04273,2.042727 h -5.14368 c -1.12928,0 -2.04272,-0.916067 -2.04272,-2.042727 l 0,0 c 0,-1.129292 0.91606,-2.042728 2.04272,-2.042728 h 5.14368 c 1.12666,-0.0027 2.04273,0.913436 2.04273,2.042728 l 0,0 z" /><path
     inkscape:connector-curvature="0"
     style="fill:#262626;fill-opacity:1"
     id="path31"
     d="m 188.47008,14.624251 c 0,2.063787 -1.67419,3.737981 -3.73798,3.737981 l 0,0 c -2.06378,0 -3.73799,-1.674194 -3.73799,-3.737981 V 9.7174926 c 0,-2.0637879 1.67421,-3.7379815 3.73799,-3.7379815 l 0,0 c 2.06379,0 3.73798,1.6741936 3.73798,3.7379815 v 4.9067584 z" /><path
     inkscape:connector-curvature="0"
     style="fill:#262626;fill-opacity:1"
     id="path33"
     d="m 187.53559,3.6472206 c 0,0.5159467 -0.41856,0.9318634 -0.9345,0.9318634 h -3.63268 c -0.51595,0 -0.93449,-0.4159167 -0.93449,-0.9318634 V 0.3778029 c 0,-0.51594671 0.41854,-0.93449532 0.93449,-0.93449532 h 3.63268 c 0.51594,0 0.9345,0.41854861 0.9345,0.93449532 v 3.2694177 z" /><path
     inkscape:connector-curvature="0"
     style="fill:#262626;fill-opacity:1"
     id="path35"
     d="m 188.47008,-3.3601789 c 0,0.513314 -0.41591,0.9318634 -0.93185,0.9318634 h -5.3569 c -0.51333,0 -0.93187,-0.4185494 -0.93187,-0.9318634 v -9.3949691 c 0,-0.515946 0.41854,-0.934496 0.93187,-0.934496 h 5.3569 c 0.51594,0 0.93185,0.41855 0.93185,0.934496 v 9.3949691 z" /><path
     inkscape:connector-curvature="0"
     style="fill:#262626;fill-opacity:1"
     id="path37"
     d="m 190.22326,-54.807441 c 0,0.515947 -0.41856,0.931862 -0.93189,0.931862 h -6.7889 c -0.51595,0 -0.93185,-0.415915 -0.93185,-0.931862 v -7.336448 c 0,-0.515947 0.4159,-0.931862 0.93185,-0.931862 h 6.7889 c 0.51333,0 0.93189,0.415915 0.93189,0.931862 v 7.336448 z" /><path
     inkscape:connector-curvature="0"
     style="fill:#262626;fill-opacity:1"
     id="path39"
     d="m 197.95982,-92.611068 -14.99141,10.121508 c 0,0 17.76856,101.341416 16.19178,135.214901 -0.0447,8.960625 11.02968,7.4628 13.96214,2.866662 2.93247,-4.596138 -15.16251,-148.203071 -15.16251,-148.203071 z" /><ellipse
     transform="matrix(2.6323814,0,0,2.6323814,5.7327962,-167.41809)"
     sodipodi:ry="1.6059999"
     sodipodi:rx="1.132"
     sodipodi:cy="76.319"
     sodipodi:cx="48.479"
     style="fill:#262626;fill-opacity:1"
     id="ellipse41"
     ry="1.6059999"
     rx="1.132"
     cy="76.319"
     cx="48.479"
     d="m 49.611,76.319 c 0,0.88697 -0.506814,1.606 -1.132,1.606 -0.625186,0 -1.132,-0.71903 -1.132,-1.606 0,-0.886969 0.506814,-1.606 1.132,-1.606 0.625186,0 1.132,0.719031 1.132,1.606 z" /><path
     inkscape:connector-curvature="0"
     style="fill:#262626;fill-opacity:1"
     id="path43"
     d="m 136.19363,44.828196 c 0,2.337554 -0.33695,4.514534 -2.97987,4.232869 -1.63734,-0.173737 -3.68532,-1.118762 -2.98248,-4.232869 0.51595,-2.279642 1.33461,-4.230237 2.98248,-4.230237 1.64524,-0.0026 2.97987,1.892681 2.97987,4.230237 z" /><path
     inkscape:connector-curvature="0"
     style="fill:#262626;fill-opacity:1"
     id="path45"
     d="m 135.92249,38.291993 c 0,2.656072 0,4.783036 -2.70873,4.809361 -3.35101,0.03159 -2.70871,-2.153289 -2.70871,-4.809361 0,-2.656073 1.2109,-4.809361 2.70871,-4.809361 1.4952,-0.0026 2.70873,2.153288 2.70873,4.809361 z" /><path
     inkscape:connector-curvature="0"
     style="fill:#262626;fill-opacity:1"
     id="path47"
     d="m 136.39105,51.451267 c 0,2.213833 -1.43466,4.006486 -3.20361,4.006486 -1.76897,0 -2.73241,-1.926905 -3.2036,-4.006486 -0.48436,-2.158553 0.21584,-4.925186 3.2036,-4.006485 3.20361,0.979248 3.20361,1.792652 3.20361,4.006485 z" /><path
     inkscape:connector-curvature="0"
     style="fill:#262626;fill-opacity:1"
     id="path49"
     d="m 152.79341,53.749336 c 0.13688,2.832443 -1.33461,4.230237 -2.9825,4.230237 -1.64522,0 -2.97984,-1.895314 -2.97984,-4.230237 0,-3.543185 1.33462,-4.227605 2.97984,-4.227605 1.64789,-0.0026 2.86405,1.747902 2.9825,4.227605 z" /><path
     inkscape:connector-curvature="0"
     style="fill:#262626;fill-opacity:1"
     id="path51"
     d="m 152.52492,57.979573 c 0,1.987449 -1.26091,3.232565 -2.71136,3.595834 -2.30333,0.579125 -2.70608,-1.608385 -2.70608,-3.595834 0,-1.984816 1.21089,-3.5932 2.70608,-3.5932 1.49782,0 2.71136,1.608384 2.71136,3.5932 z" /><path
     inkscape:connector-curvature="0"
     style="fill:#262626;fill-opacity:1"
     id="path53"
     d="m 135.93565,56.666015 c 0,3.021974 -1.25827,4.114412 -2.7956,4.114412 -1.53731,0 -2.77452,-1.092438 -2.77452,-4.114412 0,-3.021973 1.44518,-2.279642 2.98249,-2.279642 1.53731,0 2.58763,-0.742331 2.58763,2.279642 z" /><path
     inkscape:connector-curvature="0"
     style="fill:#262626;fill-opacity:1"
     id="path55"
     d="m 152.79341,47.263148 c -0.0947,2.121701 -1.27143,3.84591 -2.84297,3.84591 -3.11937,0 -2.8456,-1.721578 -2.8456,-3.84591 0,-2.129596 1.27144,-3.851174 2.8456,-3.851174 1.57154,0 2.97985,0.787083 2.84297,3.851174 z" /><ellipse
     transform="matrix(2.6323814,0,0,2.6323814,5.7327962,-167.41809)"
     sodipodi:ry="1.365"
     sodipodi:rx="1.03"
     sodipodi:cy="76.161003"
     sodipodi:cx="54.888"
     style="fill:#262626;fill-opacity:1"
     id="ellipse57"
     ry="1.365"
     rx="1.03"
     cy="76.161003"
     cx="54.888"
     d="m 55.918,76.161003 c 0,0.753869 -0.461146,1.365 -1.03,1.365 -0.568853,0 -1.029999,-0.611131 -1.029999,-1.365 0,-0.753869 0.461146,-1.365 1.029999,-1.365 0.568854,0 1.03,0.611131 1.03,1.365 z" /><path
     inkscape:connector-curvature="0"
     style="fill:#262626;fill-opacity:1"
     id="path59"
     d="m 152.65653,37.491749 c -0.24217,1.969021 -1.2109,3.5932 -2.70872,3.5932 -1.49519,0 -2.22699,-1.671563 -2.70608,-3.5932 -0.40802,-1.629445 1.21089,-3.595833 2.70608,-3.595833 1.49782,0 2.98248,1.387265 2.70872,3.595833 z" /><path
     inkscape:connector-curvature="0"
     style="fill:#262626;fill-opacity:1"
     id="path61"
     d="m 152.79605,42.108945 c 0,2.124333 -1.27407,3.845911 -2.84561,3.845911 -1.57153,0 -2.8456,-1.721578 -2.8456,-3.845911 0,-2.126964 0.14741,-5.117348 2.8456,-3.848541 2.97985,1.403059 2.84561,1.721577 2.84561,3.848541 z" /><ellipse
     transform="matrix(2.6323814,0,0,2.6323814,5.7327962,-167.41809)"
     sodipodi:ry="1.525"
     sodipodi:rx="0.65499997"
     sodipodi:cy="91.111"
     sodipodi:cx="48.428001"
     style="fill:#262626;fill-opacity:1"
     id="ellipse63"
     ry="1.525"
     rx="0.65499997"
     cy="91.111"
     cx="48.428001"
     d="m 49.083001,91.111 c 0,0.842234 -0.293253,1.525 -0.655,1.525 -0.361746,0 -0.655,-0.682766 -0.655,-1.525 0,-0.842234 0.293254,-1.525 0.655,-1.525 0.361747,0 0.655,0.682766 0.655,1.525 z" /><ellipse
     transform="matrix(2.6323814,0,0,2.6323814,5.7327962,-167.41809)"
     sodipodi:ry="1.281"
     sodipodi:rx="1.0039999"
     sodipodi:cy="87.572998"
     sodipodi:cx="48.428001"
     style="fill:#262626;fill-opacity:1"
     id="ellipse65"
     ry="1.281"
     rx="1.0039999"
     cy="87.572998"
     cx="48.428001"
     d="m 49.432001,87.572998 c 0,0.707477 -0.449506,1.281 -1.004,1.281 -0.554493,0 -1.004,-0.573523 -1.004,-1.281 0,-0.707477 0.449507,-1.281 1.004,-1.281 0.554494,0 1.004,0.573523 1.004,1.281 z" /><path
     inkscape:connector-curvature="0"
     style="fill:#262626;fill-opacity:1"
     id="path67"
     d="m 135.85668,68.403803 c 0,0.365901 -0.29483,0.658095 -0.65809,0.658095 h -3.96963 c -0.36593,0 -0.65809,-0.292194 -0.65809,-0.658095 v -1.260909 c 0,-0.365903 0.29216,-0.660728 0.65809,-0.660728 h 3.96963 c 0.36326,0 0.65809,0.294825 0.65809,0.660728 v 1.260909 z" /><ellipse
     transform="matrix(2.6323814,0,0,2.6323814,5.7327962,-167.41809)"
     sodipodi:ry="1.526"
     sodipodi:rx="0.65499997"
     sodipodi:cy="90.954002"
     sodipodi:cx="54.734001"
     style="fill:#262626;fill-opacity:1"
     id="ellipse69"
     ry="1.526"
     rx="0.65499997"
     cy="90.954002"
     cx="54.734001"
     d="m 55.389001,90.954002 c 0,0.842787 -0.293253,1.526 -0.655,1.526 -0.361746,0 -0.655,-0.683213 -0.655,-1.526 0,-0.842786 0.293254,-1.526 0.655,-1.526 0.361747,0 0.655,0.683214 0.655,1.526 z" /><circle
     transform="matrix(2.6323814,0,0,2.6323814,5.7327962,-167.41809)"
     sodipodi:ry="1.0039999"
     sodipodi:rx="1.0039999"
     sodipodi:cy="87.694"
     sodipodi:cx="54.734001"
     style="fill:#262626;fill-opacity:1"
     id="circle71"
     r="1.0039999"
     cy="87.694"
     cx="54.734001"
     d="m 55.738001,87.694 c 0,0.554494 -0.449506,1.004 -1.004,1.004 -0.554494,0 -1.004,-0.449506 -1.004,-1.004 0,-0.554494 0.449506,-1.004 1.004,-1.004 0.554494,0 1.004,0.449506 1.004,1.004 z" /><path
     inkscape:connector-curvature="0"
     style="fill:#262626;fill-opacity:1"
     id="path73"
     d="m 152.45647,67.993152 c 0,0.36327 -0.29483,0.660729 -0.66073,0.660729 h -3.967 c -0.36589,0 -0.66072,-0.297459 -0.66072,-0.660729 v -1.260911 c 0,-0.368532 0.29483,-0.660726 0.66072,-0.660726 h 3.967 c 0.3659,0 0.66073,0.292194 0.66073,0.660726 v 1.260911 z" /></g>
</svg>