<?xml version="1.0" encoding="UTF-8" standalone="no"?>
<svg
   xmlns:dc="http://purl.org/dc/elements/1.1/"
   xmlns:cc="http://creativecommons.org/ns#"
   xmlns:rdf="http://www.w3.org/1999/02/22-rdf-syntax-ns#"
   xmlns:svg="http://www.w3.org/2000/svg"
   xmlns="http://www.w3.org/2000/svg"
   xmlns:sodipodi="http://sodipodi.sourceforge.net/DTD/sodipodi-0.dtd"
   xmlns:inkscape="http://www.inkscape.org/namespaces/inkscape"
   color-rendering="auto"
   color-interpolation="auto"
   text-rendering="auto"
   stroke-miterlimit="10"
   shape-rendering="auto"
   font-weight="normal"
   font-style="normal"
   font-size="12"
   image-rendering="auto"
   id="svg2"
   version="1.1"
   inkscape:version="0.48.2 r9819"
   width="16"
   height="16"
   sodipodi:docname="check.svg"
   style="font-size:12px;font-style:normal;font-weight:normal;fill:#000000;fill-opacity:1;stroke:#000000;stroke-width:1;stroke-linecap:square;stroke-linejoin:miter;stroke-miterlimit:10;stroke-opacity:1;stroke-dasharray:none;stroke-dashoffset:0;font-family:Dialog">
  <metadata
     id="metadata13">
    <rdf:RDF>
      <cc:Work
         rdf:about="">
        <dc:format>image/svg+xml</dc:format>
        <dc:type
           rdf:resource="http://purl.org/dc/dcmitype/StillImage" />
      </cc:Work>
    </rdf:RDF>
  </metadata>
  <sodipodi:namedview
     pagecolor="#ffffff"
     bordercolor="#666666"
     borderopacity="1"
     objecttolerance="10"
     gridtolerance="10"
     guidetolerance="10"
     inkscape:pageopacity="0"
     inkscape:pageshadow="2"
     inkscape:window-width="1089"
     inkscape:window-height="716"
     id="namedview11"
     showgrid="false"
     inkscape:zoom="8"
     inkscape:cx="11.505623"
     inkscape:cy="8.2536379"
     inkscape:window-x="112"
     inkscape:window-y="0"
     inkscape:window-maximized="0"
     inkscape:current-layer="svg2" />
  <!--Unicode Character 'HEAVY CHECK MARK' (U+2714)-->
  <defs
     id="genericDefs" />
  <g
     id="g5"
     transform="matrix(0.06381767,0,0,0.06282185,0.37179162,-9.400396)"
     style="fill:#33b5e5;fill-opacity:1">
    <g
       id="g7"
       style="fill:#33b5e5;fill-opacity:1">
      <path
         d="m 79.1719,320.7656 q 10.2656,-21.5156 24.4687,-47.25 14.2032,-25.7344 32.1328,-51.3281 17.9297,-25.5937 26.1563,-33.9609 8.2265,-8.3672 13.9219,-13.2891 5.6953,-4.9219 20.1796,-7.1719 14.4844,-2.25 21.9376,-2.25 4.9218,0 8.0859,3.0235 3.1641,3.0234 3.1641,7.9453 0,3.7968 -1.8282,6.539 -1.8281,2.7422 -7.5937,8.2266 -27.7031,25.4531 -57.6563,72.5625 -29.9531,47.1094 -47.5312,91.2656 -8.2969,20.25 -10.6875,23.7657 -2.3907,3.5156 -7.3125,6.539 -4.9219,3.0234 -20.25,3.0234 -12.0938,0 -15.4688,-1.4765 -3.375,-1.4766 -5.2031,-3.1641 -1.8281,-1.6875 -10.4063,-14.625 Q 36.4219,355.5 19.5469,336.9375 9.8438,326.25 9.8438,319.0781 q 0,-10.4062 11.039,-18.1406 11.0391,-7.7344 19.4766,-7.7344 9.2812,0 19.8281,7.5235 10.5469,7.5234 18.9844,20.039 z"
         id="path9"
         inkscape:connector-curvature="0"
         style="fill:#33b5e5;fill-opacity:1;stroke:none" />
    </g>
  </g>
</svg>
